<svg xmlns="http://www.w3.org/2000/svg" width="37.835" height="48" viewBox="0 0 37.835 48">
  <g id="ICDelete" transform="translate(2301 -482)">
    <path id="Pfad_107" data-name="Pfad 107" d="M0,0H30.494V27.859a8,8,0,0,1-8,8H8a8,8,0,0,1-8-8Z" transform="translate(-2297.33 494.141)" fill="#9b9b9b"/>
    <path id="Rechteck_207" data-name="Rechteck 207" d="M0,0H37.835a0,0,0,0,1,0,0V0a4.518,4.518,0,0,1-4.518,4.518H4.518A4.518,4.518,0,0,1,0,0V0A0,0,0,0,1,0,0Z" transform="translate(-2263.165 493.012) rotate(180)" fill="#9b9b9b"/>
    <g id="Pfad_106" data-name="Pfad 106" transform="translate(-2289.424 482)" fill="none">
      <path d="M7.341,0a7.272,7.272,0,0,1,7.341,7.2c0,3.976-3.287,2.209-7.341,2.209S0,11.176,0,7.2A7.272,7.272,0,0,1,7.341,0Z" stroke="none"/>
      <path d="M 7.341176986694336 3.999995231628418 C 6.106847763061523 3.999995231628418 5.026728630065918 4.644312858581543 4.448225975036621 5.600269794464111 C 5.294483184814453 5.504133224487305 6.283506393432617 5.409035205841064 7.341176986694336 5.409035205841064 C 8.398909568786621 5.409035205841064 9.387908935546875 5.504121780395508 10.23412036895752 5.600257396697998 C 9.655616760253906 4.644299983978271 8.575506210327148 3.999995231628418 7.341176986694336 3.999995231628418 M 7.341176986694336 -4.76837158203125e-06 C 11.39559745788574 -4.76837158203125e-06 14.68235683441162 3.223545551300049 14.68235683441162 7.199995040893555 C 14.68235683441162 9.304965972900391 13.76101589202881 9.800460815429688 12.29265975952148 9.800460815429688 C 10.98717308044434 9.800460815429688 9.249357223510742 9.409035682678223 7.341176986694336 9.409035682678223 C 5.433243751525879 9.409035682678223 3.695123672485352 9.800460815429688 2.389693260192871 9.800460815429688 C 0.9210424423217773 9.800460815429688 -2.86102294921875e-06 9.305208206176758 -2.86102294921875e-06 7.199995040893555 C -2.86102294921875e-06 3.223545551300049 3.28675651550293 -4.76837158203125e-06 7.341176986694336 -4.76837158203125e-06 Z" stroke="none" fill="#9b9b9b"/>
    </g>
  </g>
</svg>
