<svg xmlns="http://www.w3.org/2000/svg" xmlns:xlink="http://www.w3.org/1999/xlink" width="40" height="40" viewBox="0 0 40 40">
  <defs>
    <clipPath id="clip">
      <use xlink:href="#fill"/>
    </clipPath>
    <clipPath id="clip-2">
      <use xlink:href="#fill-2"/>
    </clipPath>
    <clipPath id="clip-3">
      <use xlink:href="#fill-3"/>
    </clipPath>
    <clipPath id="clip-4">
      <use xlink:href="#fill-4"/>
    </clipPath>
  </defs>
  <g id="ic_setlist" transform="translate(2384 -203)">
    <g id="Gruppe_75" data-name="Gruppe 75" transform="translate(-2384 203)">
      <g id="Rechteck_14" data-name="Rechteck 14" fill="none" stroke="#fff" stroke-width="4">
        <rect width="40" height="40" rx="8" stroke="none"/>
        <rect x="2" y="2" width="36" height="36" rx="6" fill="none"/>
      </g>
      <g id="Rechteck_197" data-name="Rechteck 197" transform="translate(6 22)" fill="none" stroke="#fff" stroke-width="8">
        <rect id="fill" width="28" height="3" rx="1.5" stroke="none"/>
        <path d="M0,-1h28M24,0v3M28,4h-28M4,3v-3" fill="none" clip-path="url(#clip)"/>
      </g>
      <g id="Rechteck_198" data-name="Rechteck 198" transform="translate(6 29)" fill="none" stroke="#fff" stroke-width="8">
        <rect id="fill-2" width="28" height="3" rx="1.5" stroke="none"/>
        <path d="M0,-1h28M24,0v3M28,4h-28M4,3v-3" fill="none" clip-path="url(#clip-2)"/>
      </g>
      <g id="Rechteck_199" data-name="Rechteck 199" transform="translate(6 8)" fill="none" stroke="#fff" stroke-width="8">
        <rect id="fill-3" width="28" height="3" rx="1.5" stroke="none"/>
        <path d="M0,-1h28M24,0v3M28,4h-28M4,3v-3" fill="none" clip-path="url(#clip-3)"/>
      </g>
      <g id="Rechteck_200" data-name="Rechteck 200" transform="translate(6 15)" fill="none" stroke="#fff" stroke-width="8">
        <rect id="fill-4" width="28" height="3" rx="1.5" stroke="none"/>
        <path d="M0,-1h28M24,0v3M28,4h-28M4,3v-3" fill="none" clip-path="url(#clip-4)"/>
      </g>
    </g>
  </g>
</svg>
