<svg xmlns="http://www.w3.org/2000/svg" width="40" height="40" viewBox="0 0 40 40">
  <g id="Komponente_5" data-name="Komponente 5" transform="translate(0 0.16)">
    <rect id="Rechteck_193" data-name="Rechteck 193" width="40" height="40" transform="translate(0 -0.16)" fill="none"/>
    <path id="Pfad_104" data-name="Pfad 104" d="M279.139,24.742a4.951,4.951,0,1,0-5.1-4.948A5.043,5.043,0,0,0,279.139,24.742ZM268.676,8.907A14.535,14.535,0,0,1,274.8,5.691L276.842,0h5.1l2.041,5.691a18,18,0,0,1,6.124,3.217l6.124-1.237,2.552,4.454L294.7,16.577a13.689,13.689,0,0,1,.255,3.217c0,.99-.255,2.227-.255,3.217l4.083,4.454-2.552,4.454-6.124-1.237a14.534,14.534,0,0,1-6.124,3.217l-2.041,5.691h-5.1L274.8,33.9a18,18,0,0,1-6.124-3.217l-6.124,1.237L260,27.464l4.083-4.454a13.688,13.688,0,0,1-.255-3.217c0-.99.255-2.227.255-3.217L260,12.124l2.552-4.454Z" transform="translate(-260)" fill="#fff" fill-rule="evenodd"/>
  </g>
</svg>
