<svg id="ICShare" xmlns="http://www.w3.org/2000/svg" width="40" height="40" viewBox="0 0 40 40">
  <rect id="Box" width="40" height="40" transform="translate(0)" fill="none"/>
  <path id="Differenzmenge_3" data-name="Differenzmenge 3" d="M28.334,35.92a5.4,5.4,0,0,1-5.516-5.266,4.789,4.789,0,0,1,.152-1.171l-13.449-7.5A5.813,5.813,0,0,1,5.665,23.44,5.548,5.548,0,0,1,0,18.032a5.548,5.548,0,0,1,5.665-5.409,5.814,5.814,0,0,1,3.857,1.461L22.836,6.671a5.764,5.764,0,0,1-.17-1.263A5.673,5.673,0,0,1,34,5.409a5.548,5.548,0,0,1-5.666,5.409A5.807,5.807,0,0,1,24.48,9.357L11.164,16.769a5.775,5.775,0,0,1,.171,1.263,5.794,5.794,0,0,1-.171,1.263l13.468,7.483a5.67,5.67,0,0,1,3.7-1.39,5.272,5.272,0,1,1,0,10.533Zm0-7.068a1.806,1.806,0,1,0,1.889,1.8A1.849,1.849,0,0,0,28.334,28.852ZM5.669,16.229a1.806,1.806,0,1,0,0,3.607,1.805,1.805,0,1,0,0-3.607ZM28.334,3.606a1.849,1.849,0,0,0-1.889,1.8,1.891,1.891,0,0,0,3.777,0A1.849,1.849,0,0,0,28.334,3.606Z" transform="translate(3.025 2)" fill="#a3a3a3"/>
</svg>
