<svg id="ICStop" xmlns="http://www.w3.org/2000/svg" width="64" height="64" viewBox="0 0 64 64">
  <g id="Pfad_116" data-name="Pfad 116" fill="none">
    <path d="M32,0A32,32,0,1,1,0,32,32,32,0,0,1,32,0Z" stroke="none"/>
    <path d="M 32 7 C 18.2149543762207 7 7 18.2149543762207 7 32 C 7 45.7850456237793 18.2149543762207 57 32 57 C 45.7850456237793 57 57 45.7850456237793 57 32 C 57 18.2149543762207 45.7850456237793 7 32 7 M 32 0 C 49.6731071472168 0 64 14.3268928527832 64 32 C 64 49.6731071472168 49.6731071472168 64 32 64 C 14.3268928527832 64 0 49.6731071472168 0 32 C 0 14.3268928527832 14.3268928527832 0 32 0 Z" stroke="none" fill="#9b9b9b"/>
  </g>
  <rect id="Rechteck_233" data-name="Rechteck 233" width="36" height="36" transform="translate(13.975 14)" fill="#9b9b9b"/>
</svg>
